:version 1.10
:name ASF
:units
  mass 1
  length 1
  angle deg
:documentation
  ASF file generated by Kaydara
:root
  axis xyz
  order  tx ty tz rx ry rz
  position 0 0 0
  orientation 0 0 0
:bonedata
  begin
    id 1
    name LeftUpLegDummy
    direction 1 -2.30186e-007 -8.31532e-007
    length 2.93387
    axis 0 0 0 xyz
  end
  begin
    id 2
    name LeftUpLeg
    direction -1.82929e-007 -1 -1.48925e-009
    length 17.3336
    axis -3.48766 0.00143442 -0.000521554 xyz
    dof rx ry rz
  end
  begin
    id 3
    name LeftLeg
    direction -1.82929e-007 -1 -5.23717e-011
    length 14.9995
    axis 3.68178 -0.00654042 -0.000282425 xyz
    dof rx ry rz
  end
  begin
    id 4
    name LeftFoot
    direction 8.31532e-007 -4.54534e-011 1
    length 6.74421
    axis 1.87234e-006 4.66016e-005 -5.96866e-006 xyz
    dof rx ry rz
  end
  begin
    id 5
    name LeftToes
    direction 0.00818058 -0.00485161 0.999955
    length 3.85048
    axis 1.06247e-005 4.65869e-005 -5.96999e-006 xyz
    dof rx ry rz
  end
  begin
    id 6
    name SpineDummy
    direction -5.8607e-008 0.943407 -0.331637
    length 5.93572
    axis 0 0 0 xyz
  end
  begin
    id 7
    name Spine
    direction -1.04988e-007 0.999988 0.00495137
    length 10.1015
    axis -0.001389 0.000121417 6.61666e-006 xyz
    dof rx ry rz
  end
  begin
    id 8
    name Spine1
    direction 0 0 0
    length 0
    axis -0.001389 0.00012144 6.56766e-006 xyz
    dof rx ry rz
  end
  begin
    id 9
    name RightShoulderDummy
    direction -0.98348 0.17941 -0.0240696
    length 3.59882
    axis -0.001389 0.00012144 6.56766e-006 xyz
  end
  begin
    id 10
    name RightShoulder
    direction -0.978693 0.204882 0.0135597
    length 2.70001
    axis 0.215806 0.000203631 -0.00679732 xyz
    dof rx ry rz
  end
  begin
    id 11
    name RightArm
    direction -1 3.85509e-006 8.31394e-007
    length 10.2459
    axis -23.2009 -0.134239 -0.964098 xyz
    dof rx ry rz
  end
  begin
    id 12
    name RightForeArm
    direction -1 3.85569e-006 8.3129e-007
    length 8.16799
    axis -9.92322 0.0658061 0.17887 xyz
    dof rx ry rz
  end
  begin
    id 13
    name RightHand
    direction -0.992843 -0.0414604 0.112003
    length 5.28593
    axis -0.00960638 0.00330669 -0.185225 xyz
    dof rx ry rz
  end
  begin
    id 14
    name LeftShoulder1Dummy
    direction 0.983523 0.179172 -0.0240748
    length 3.59866
    axis -0.001389 0.00012144 6.56766e-006 xyz
  end
  begin
    id 15
    name LeftShoulder1
    direction 0.978627 0.205195 0.0135605
    length 2.70019
    axis -0.001389 0.00012144 6.57583e-006 xyz
    dof rx ry rz
  end
  begin
    id 16
    name LeftArm
    direction 1 3.51895e-006 -8.60188e-007
    length 10.2459
    axis -23.1894 0.134785 0.967513 xyz
    dof rx ry rz
  end
  begin
    id 17
    name LeftForeArm
    direction 1 3.51921e-006 -7.32029e-007
    length 8.16799
    axis -9.91835 -0.0656957 -0.177789 xyz
    dof rx ry rz
  end
  begin
    id 18
    name LeftHand
    direction 0.992938 -0.0411636 0.11126
    length 5.32135
    axis -0.00960237 -0.00340661 0.185177 xyz
    dof rx ry rz
  end
  begin
    id 19
    name HEadDummy
    direction 1.01974e-006 0.999861 -0.016675
    length 2.99946
    axis -0.001389 0.00012144 6.56766e-006 xyz
  end
  begin
    id 20
    name HEad
    direction -0.0222689 0.980941 0.193023
    length 5.12695
    axis -0.001389 0.00012144 6.56766e-006 xyz
    dof rx ry rz
  end
  begin
    id 21
    name RightUpLegDummy
    direction -1 2.30186e-007 8.31532e-007
    length 2.93387
    axis 0 0 0 xyz
  end
  begin
    id 22
    name RightUpLeg
    direction -1.82966e-007 -1 1.56832e-007
    length 17.3336
    axis -3.4909 -0.000906625 0.00028951 xyz
    dof rx ry rz
  end
  begin
    id 23
    name RightLeg
    direction -1.82786e-007 -1 -1.80317e-007
    length 14.9995
    axis 3.68513 0.0193739 -0.131021 xyz
    dof rx ry rz
  end
  begin
    id 24
    name RightFoot
    direction 8.31721e-007 -4.63324e-011 1
    length 6.74421
    axis 4.81691e-005 -0.120479 -0.188785 xyz
    dof rx ry rz
  end
  begin
    id 25
    name RightToes
    direction 0.00124746 -0.014064 0.9999
    length 3.85082
    axis 0.000481921 0.542163 -0.142575 xyz
    dof rx ry rz
  end
:hierarchy
  begin
    root LeftUpLegDummy SpineDummy RightUpLegDummy
    LeftUpLegDummy LeftUpLeg
    LeftUpLeg LeftLeg
    LeftLeg LeftFoot
    LeftFoot LeftToes
    SpineDummy Spine
    Spine Spine1
    Spine1 RightShoulderDummy LeftShoulder1Dummy HEadDummy
    RightShoulderDummy RightShoulder
    RightShoulder RightArm
    RightArm RightForeArm
    RightForeArm RightHand
    LeftShoulder1Dummy LeftShoulder1
    LeftShoulder1 LeftArm
    LeftArm LeftForeArm
    LeftForeArm LeftHand
    HEadDummy HEad
    RightUpLegDummy RightUpLeg
    RightUpLeg RightLeg
    RightLeg RightFoot
    RightFoot RightToes
  end

:SAMPLES-PER-SECOND 30
:FULLY-SPECIFIED
:DEGREES
93
root  -1.75806 34.273 -5.28706 118.709 88.41 110.586
LeftUpLeg  -7.77075 4.50669 3.22731
LeftLeg  18.8496 5.11028 1.38104
LeftFoot  -1.1437 -0.00127883 -0.0309005
LeftToes  -24.1271 7.65994e-007 1.12379e-007
Spine  4.32022 1.82994 0.325596
Spine1  8.28569 4.29038 -0.0724238
RightShoulder  0.0797501 -1.65927 -2.59733
RightArm  4.51685 22.4727 80.9409
RightForeArm  138.361 53.9486 165.632
RightHand  1.64658 -18.6401 -9.63491
LeftShoulder1  0.00620764 -1.1858 -6.56587
LeftArm  -12.1114 13.1431 -69.9092
LeftForeArm  24.9514 -26.3188 -4.99655
LeftHand  0.151624 4.11477 4.01111
HEad  19.8701 1.77253 -2.35344
RightUpLeg  -14.7755 -13.5219 2.09407
RightLeg  14.0382 5.08699 0.929366
RightFoot  -0.482011 -0.00383002 0.0506883
RightToes  -18.2958 -0.0721634 -0.16298
94
root  -1.69955 34.2681 -5.21529 123.873 88.3559 115.785
LeftUpLeg  -7.96398 4.56086 3.26783
LeftLeg  19.442 5.5596 1.5639
LeftFoot  -1.17762 -0.00132569 -0.0413777
LeftToes  -24.276 7.65994e-007 1.12379e-007
Spine  4.29246 1.88057 0.264262
Spine1  8.22372 4.40207 -0.193301
RightShoulder  0.081475 -1.75185 -2.45296
RightArm  4.48105 23.2384 81.3503
RightForeArm  138.388 53.3463 165.946
RightHand  1.60645 -18.0152 -9.73492
LeftShoulder1  0.00608209 -1.27008 -6.51137
LeftArm  -12.4156 13.3764 -69.7462
LeftForeArm  24.9601 -26.1375 -4.95665
LeftHand  0.152029 4.10735 4.02592
HEad  20.4706 -0.828575 -2.2448
RightUpLeg  -14.7161 -13.8549 2.22262
RightLeg  14.2325 5.2666 0.98046
RightFoot  -0.745089 -0.00363724 0.0257448
RightToes  -17.7603 -0.0708893 -0.161232
95
root  -1.6401 34.258 -5.15331 128.195 88.3636 120.176
LeftUpLeg  -8.16914 4.61662 3.38925
LeftLeg  20.1653 5.83523 1.72077
LeftFoot  -1.28788 -0.00134362 -0.0587585
LeftToes  -24.5251 7.65994e-007 1.12379e-007
Spine  4.26274 1.84606 0.220659
Spine1  8.16296 4.33077 -0.273357
RightShoulder  0.0830707 -1.92068 -2.26707
RightArm  4.62502 23.3266 81.7035
RightForeArm  138.983 52.7631 166.239
RightHand  1.64654 -17.884 -10.0626
LeftShoulder1  0.00599031 -1.33706 -6.46493
LeftArm  -12.7381 13.7143 -69.5647
LeftForeArm  24.901 -26.1431 -4.95789
LeftHand  0.151713 4.14612 4.0239
HEad  21.0167 -2.63856 -2.13849
RightUpLeg  -14.593 -14.1048 2.37396
RightLeg  14.3565 5.41712 1.02048
RightFoot  -0.971865 -0.00319414 0.000943281
RightToes  -17.5457 -0.0699392 -0.159879
96
root  -1.58288 34.2463 -5.1153 126.845 88.4924 118.947
LeftUpLeg  -8.35091 4.76733 3.5085
LeftLeg  21.0264 6.07115 1.88942
LeftFoot  -1.47542 -0.001103 -0.0856709
LeftToes  -24.7395 7.65994e-007 1.12379e-007
Spine  4.23393 1.77288 0.209153
Spine1  8.10848 4.17727 -0.290455
RightShoulder  0.0845875 -1.9713 -2.20864
RightArm  4.77303 23.0602 81.9562
RightForeArm  139.544 52.3453 166.444
RightHand  1.65822 -17.6205 -10.2949
LeftShoulder1  0.00593291 -1.32206 -6.47831
LeftArm  -13.0085 14.028 -69.4395
LeftForeArm  24.9091 -26.096 -4.94754
LeftHand  0.150797 4.14519 3.95169
HEad  21.4746 -3.79728 -2.15899
RightUpLeg  -14.4912 -14.1775 2.49009
RightLeg  14.6206 5.58008 1.07762
RightFoot  -1.20403 -0.00242634 -0.0262286
RightToes  -17.3221 -0.0692664 -0.158888
97
root  -1.53659 34.2277 -5.10333 118.749 88.753 111.028
LeftUpLeg  -8.56701 4.92868 3.66301
LeftLeg  22.1255 6.24193 2.07406
LeftFoot  -1.78413 -0.00196509 -0.126213
LeftToes  -24.9672 7.65994e-007 1.12379e-007
Spine  4.22094 1.70542 0.223034
Spine1  8.08546 4.03916 -0.265475
RightShoulder  0.085996 -1.99527 -2.15715
RightArm  4.91509 22.8077 82.0861
RightForeArm  139.403 52.1198 166.554
RightHand  1.64475 -17.3135 -10.3981
LeftShoulder1  0.00591052 -1.33035 -6.50418
LeftArm  -13.173 14.3691 -69.3551
LeftForeArm  24.8712 -26.2126 -4.97318
LeftHand  0.150746 4.20016 3.98449
HEad  21.7399 -4.5271 -2.23168
RightUpLeg  -14.3946 -14.0727 2.60146
RightLeg  14.9578 5.73496 1.14232
RightFoot  -1.44508 -0.00150494 -0.0548818
RightToes  -17.2413 -0.0688245 -0.158225
98
root  -1.50799 34.1977 -5.11699 101.231 89.0551 93.7221
LeftUpLeg  -8.92834 5.05603 3.87269
LeftLeg  23.5994 6.32952 2.28477
LeftFoot  -2.20314 -0.00313818 -0.178876
LeftToes  -25.3585 7.65994e-007 1.12379e-007
Spine  4.23176 1.63385 0.26337
Spine1  8.11312 3.89297 -0.192322
RightShoulder  0.0872947 -2.09326 -2.18927
RightArm  5.25855 22.8485 82.3063
RightForeArm  139.294 52.0462 166.59
RightHand  1.63253 -16.9828 -10.5285
LeftShoulder1  0.00592375 -1.3748 -6.47674
LeftArm  -13.368 14.6801 -69.3794
LeftForeArm  24.8677 -26.5093 -5.03863
LeftHand  0.151154 4.12654 3.95733
HEad  21.8529 -4.85032 -2.33476
RightUpLeg  -14.2811 -13.8256 2.7306
RightLeg  15.2735 5.83731 1.19595
RightFoot  -1.72075 -0.000242463 -0.0870617
RightToes  -17.0259 -0.0685667 -0.157855
99
root  -1.48631 34.1628 -5.14764 70.1699 89.2109 62.8975
LeftUpLeg  -9.32024 5.04473 4.1045
LeftLeg  25.1927 6.38369 2.50618
LeftFoot  -2.52411 -0.00483549 -0.219498
LeftToes  -26.3185 7.65994e-007 1.12379e-007
Spine  4.23239 1.55708 0.316137
Spine1  8.1201 3.73627 -0.0937236
RightShoulder  0.0884877 -2.14708 -2.22156
RightArm  5.78742 23.0747 82.5073
RightForeArm  139.029 52.1032 166.563
RightHand  1.66608 -16.7701 -10.8933
LeftShoulder1  0.00597322 -1.44192 -6.46902
LeftArm  -13.426 14.9234 -69.3966
LeftForeArm  24.7975 -26.7896 -5.1008
LeftHand  0.151044 4.09582 3.92717
HEad  22.0515 -5.00972 -2.38002
RightUpLeg  -14.0769 -13.1446 2.85349
RightLeg  15.4193 5.50306 1.14223
RightFoot  -1.87225 -0.000514733 -0.0927763
RightToes  -17.2727 -0.0684466 -0.157744
100
root  -1.46714 34.1336 -5.19222 28.655 89.1785 21.7156
LeftUpLeg  -9.65511 5.03634 4.48734
LeftLeg  26.8657 6.40613 2.7325
LeftFoot  -2.79267 -0.00565756 -0.2534
LeftToes  -27.4777 7.65994e-007 1.12379e-007
Spine  4.26388 1.51413 0.429037
Spine1  8.19396 3.64611 0.119589
RightShoulder  0.0895536 -2.21252 -2.15372
RightArm  6.02025 23.3373 82.5439
RightForeArm  138.117 52.3969 166.423
RightHand  1.6097 -16.6282 -10.608
LeftShoulder1  0.00605953 -1.43819 -6.53285
LeftArm  -13.2513 14.8785 -69.4318
LeftForeArm  24.7136 -26.9649 -5.13984
LeftHand  0.151053 4.14739 3.96862
HEad  22.1598 -5.11627 -2.38686
RightUpLeg  -13.6263 -11.9524 3.05451
RightLeg  15.2218 4.68458 0.956013
RightFoot  -1.9166 -0.00229719 -0.0715416
RightToes  -17.082 -0.0684176 -0.15786
101
root  -1.45296 34.1204 -5.25599 13.2228 88.8058 6.50259
LeftUpLeg  -9.97145 4.88071 4.55547
LeftLeg  28.2162 6.65301 3.02371
LeftFoot  -2.81045 -0.0065955 -0.268876
LeftToes  -28.685 7.65994e-007 1.12379e-007
Spine  4.27525 1.49281 0.452624
Spine1  8.21867 3.59719 0.171334
RightShoulder  0.0905324 -2.1729 -2.13802
RightArm  6.21578 23.4443 82.6161
RightForeArm  137.248 52.6793 166.287
RightHand  1.5704 -16.3537 -10.5228
LeftShoulder1  0.0061833 -1.49346 -6.59522
LeftArm  -13.2378 14.6247 -69.415
LeftForeArm  24.6623 -26.8852 -5.12209
LeftHand  0.15298 4.01494 4.01759
HEad  22.209 -5.17875 -2.39588
RightUpLeg  -13.3323 -10.6105 3.00825
RightLeg  15.0873 3.7515 0.756822
RightFoot  -1.89215 -0.00442363 -0.0406011
RightToes  -17.1046 -0.068433 -0.158166
102
root  -1.43498 34.1254 -5.31717 6.43322 88.3883 -0.11589
LeftUpLeg  -10.2111 4.64705 4.51498
LeftLeg  29.2845 7.17471 3.42131
LeftFoot  -2.71336 -0.00683146 -0.284166
LeftToes  -29.3898 7.65994e-007 1.12379e-007
Spine  4.2599 1.49565 0.457966
Spine1  8.19193 3.59068 0.201253
RightShoulder  0.0914087 -2.14239 -2.17736
RightArm  6.64958 23.3927 82.777
RightForeArm  136.744 52.8619 166.198
RightHand  1.56099 -16.1529 -10.5934
LeftShoulder1  0.00634516 -1.48465 -6.6287
LeftArm  -13.343 14.2909 -69.4346
LeftForeArm  24.6731 -26.8218 -5.10798
LeftHand  0.153615 4.02148 4.07627
HEad  22.3734 -5.1548 -2.38508
RightUpLeg  -13.0671 -9.72334 2.97752
RightLeg  14.9044 3.24789 0.644658
RightFoot  -1.71087 -0.00586274 -0.0151032
RightToes  -17.4282 -0.0684463 -0.15863
103
root  -1.43084 34.1287 -5.36503 3.12687 87.9756 -3.22917
LeftUpLeg  -10.3481 4.53833 4.41908
LeftLeg  30.1115 7.77203 3.84178
LeftFoot  -2.65138 -0.00650163 -0.305279
LeftToes  -29.6462 7.65994e-007 1.12379e-007
Spine  4.25156 1.52693 0.443882
Spine1  8.17066 3.65454 0.18009
RightShoulder  0.0921713 -2.13933 -2.20739
RightArm  7.1527 23.4437 83.0937
RightForeArm  135.758 53.0709 166.096
RightHand  1.54542 -16.1154 -10.5101
LeftShoulder1  0.0065457 -1.46012 -6.63329
LeftArm  -13.4381 13.9154 -69.3737
LeftForeArm  24.5529 -26.9176 -5.12934
LeftHand  0.153782 4.04208 4.11465
HEad  22.5248 -4.91103 -2.40254
RightUpLeg  -12.9105 -9.16609 2.95389
RightLeg  14.9539 3.05133 0.608434
RightFoot  -1.61089 -0.00534699 -0.00278708
RightToes  -17.5853 -0.0684109 -0.159218
104
root  -1.41698 34.1255 -5.40769 2.58133 87.6643 -3.47562
LeftUpLeg  -10.1469 4.51122 4.29594
LeftLeg  30.473 8.19502 4.11309
LeftFoot  -2.73899 -0.00509995 -0.339969
LeftToes  -29.4785 7.65994e-007 1.12379e-007
Spine  4.28155 1.56081 0.403227
Spine1  8.21934 3.72995 0.0991159
RightShoulder  0.0928181 -2.13739 -2.18377
RightArm  7.73863 23.596 83.4903
RightForeArm  135.022 53.4604 165.899
RightHand  1.5226 -16.1416 -10.3328
LeftShoulder1  0.00678556 -1.48294 -6.63416
LeftArm  -13.2605 13.4674 -69.1676
LeftForeArm  24.3477 -27.0453 -5.15787
LeftHand  0.155714 3.98703 4.2273
HEad  22.5541 -4.40044 -2.45276
RightUpLeg  -12.7709 -9.11747 2.85446
RightLeg  15.314 3.2493 0.668991
RightFoot  -1.71091 -0.00403621 -0.00703477
RightToes  -17.5522 -0.0683812 -0.159895
105
root  -1.40021 34.1203 -5.43818 0.99761 87.5223 -4.95452
LeftUpLeg  -9.89592 4.41253 4.2924
LeftLeg  30.3213 8.41051 4.19255
LeftFoot  -2.87801 -0.00341857 -0.375815
LeftToes  -29.3912 7.65994e-007 1.12379e-007
Spine  4.2163 1.54982 0.37485
Spine1  8.08876 3.69539 0.0704898
RightShoulder  0.0933843 -2.01347 -2.22496
RightArm  8.41036 23.5821 83.9127
RightForeArm  134.187 53.6629 165.797
RightHand  1.5625 -16.2364 -10.5471
LeftShoulder1  0.00706534 -1.49925 -6.61798
LeftArm  -13.2626 13.1131 -68.9546
LeftForeArm  24.4791 -27.133 -5.17743
LeftHand  0.156111 3.93571 4.24072
HEad  22.5641 -3.59739 -2.59031
RightUpLeg  -12.6974 -9.00227 2.84148
RightLeg  15.4319 3.26198 0.678555
RightFoot  -1.73342 -0.00270296 -0.0128313
RightToes  -17.7417 -0.0684366 -0.160627
106
root  -1.38337 34.1179 -5.45711 -0.214493 87.6122 -6.07766
LeftUpLeg  -9.54006 4.36953 4.32706
LeftLeg  29.832 8.37171 4.08515
LeftFoot  -3.02481 -0.00236008 -0.398678
LeftToes  -29.1546 7.65994e-007 1.12379e-007
Spine  4.15791 1.52921 0.346643
Spine1  7.97131 3.63906 0.0445041
RightShoulder  0.0938454 -1.925 -2.30907
RightArm  9.12199 23.5222 84.3726
RightForeArm  133.683 53.7332 165.762
RightHand  1.58332 -16.2775 -10.6635
LeftShoulder1  0.0075364 -1.52295 -6.64434
LeftArm  -13.2235 12.6174 -68.6844
LeftForeArm  24.4807 -27.0565 -5.16033
LeftHand  0.156871 3.89827 4.29237
HEad  22.651 -2.68341 -2.69153
RightUpLeg  -12.5884 -8.89393 2.82375
RightLeg  15.4611 3.04503 0.635097
RightFoot  -1.74019 -0.0022006 -0.00671706
RightToes  -18.0232 -0.0685675 -0.161381
